<svg width="204" height="60" viewBox="0 0 204 60" fill="none" xmlns="http://www.w3.org/2000/svg">
<g clip-path="url(#clip0_1592_860)">
<path d="M68.1208 35.4107C67.1039 35.4107 66.0675 35.2836 65.0115 35.0293C63.975 34.7751 63.007 34.4231 62.1075 33.9733V28.6933C62.4203 28.6347 62.7332 28.6347 63.0461 28.6933C63.1439 29.7493 63.447 30.6978 63.9555 31.5387C64.4639 32.36 65.1288 33.0151 65.9501 33.504C66.791 33.9929 67.7199 34.2373 68.7368 34.2373C70.1448 34.2373 71.2692 33.9049 72.1101 33.24C72.9706 32.5556 73.4008 31.6169 73.4008 30.424C73.4008 29.6809 73.2052 29.0649 72.8141 28.576C72.423 28.0871 71.895 27.6764 71.2301 27.344C70.5848 26.992 69.871 26.6791 69.0888 26.4053C68.3261 26.112 67.5537 25.7991 66.7715 25.4667C66.0088 25.1342 65.295 24.7333 64.6301 24.264C63.9848 23.7751 63.4666 23.1787 63.0755 22.4747C62.6843 21.7511 62.4888 20.8516 62.4888 19.776C62.4888 18.5636 62.7528 17.5369 63.2808 16.696C63.8283 15.8356 64.6106 15.1804 65.6275 14.7307C66.6443 14.2809 67.8568 14.056 69.2648 14.056C70.5163 14.056 71.5723 14.1831 72.4328 14.4373C73.2932 14.6916 74.0461 15.024 74.6915 15.4347V20.04C74.3786 20.0987 74.0657 20.0987 73.7528 20.04C73.6159 18.6516 73.1368 17.5076 72.3155 16.608C71.4941 15.6889 70.399 15.2293 69.0301 15.2293C67.7981 15.2293 66.8106 15.5129 66.0675 16.08C65.3439 16.6276 64.9821 17.3902 64.9821 18.368C64.9821 19.1698 65.1777 19.8347 65.5688 20.3627C65.9795 20.8711 66.5172 21.3111 67.1821 21.6827C67.8666 22.0347 68.5999 22.3573 69.3821 22.6507C70.1839 22.944 70.9759 23.2667 71.7581 23.6187C72.5599 23.9511 73.2932 24.3618 73.9581 24.8507C74.6426 25.32 75.1803 25.9164 75.5715 26.64C75.9821 27.3636 76.1875 28.2729 76.1875 29.368C76.1875 30.5609 75.8452 31.6169 75.1608 32.536C74.4959 33.4356 73.5572 34.1396 72.3448 34.648C71.1519 35.1564 69.7439 35.4107 68.1208 35.4107ZM83.639 35.44C82.6221 35.44 81.8008 35.2053 81.175 34.736C80.5493 34.2471 80.2364 33.4649 80.2364 32.3893V25.9067C80.2364 25.3787 80.2266 24.7822 80.207 24.1173C80.207 23.4329 80.1875 22.7484 80.1484 22.064C80.1288 21.36 80.0799 20.7342 80.0017 20.1867C80.3537 20.0693 80.6666 19.9129 80.9404 19.7173C81.2337 19.5022 81.4879 19.2578 81.703 18.984C81.9377 18.7102 82.1235 18.4267 82.2604 18.1333C82.5733 18.0747 82.8861 18.0747 83.199 18.1333C83.1208 19.4436 83.0719 20.7538 83.0524 22.064C83.0328 23.3547 83.023 24.6551 83.023 25.9653V32.272C83.023 32.9369 83.1208 33.416 83.3164 33.7093C83.5315 33.9831 83.8346 34.12 84.2257 34.12C84.519 34.12 84.8221 34.0516 85.135 33.9147C85.4479 33.7778 85.7119 33.592 85.927 33.3573C86.0835 33.4551 86.2204 33.5724 86.3377 33.7093C86.455 33.8462 86.5724 33.9929 86.6897 34.1493C86.3377 34.5209 85.9368 34.824 85.487 35.0587C85.0568 35.3129 84.4408 35.44 83.639 35.44ZM78.183 23.2667C78.1244 22.8756 78.1244 22.4844 78.183 22.0933H86.3964C86.455 22.4844 86.455 22.8756 86.3964 23.2667H78.183ZM94.8787 22.8267C94.1747 22.8267 93.5587 23.0222 93.0307 23.4133C92.5223 23.8044 92.1214 24.4107 91.8281 25.232C91.5543 26.0338 91.4174 27.0507 91.4174 28.2827C91.4174 29.6516 91.5739 30.7858 91.8867 31.6853C92.1996 32.5653 92.6396 33.2204 93.2067 33.6507C93.7739 34.0613 94.429 34.2667 95.1721 34.2667L95.0254 35.44C93.7347 35.44 92.581 35.1564 91.5641 34.5893C90.5667 34.0222 89.7747 33.2107 89.1881 32.1547C88.621 31.0987 88.3374 29.8569 88.3374 28.4293C88.3374 27.0409 88.6112 25.8382 89.1587 24.8213C89.7259 23.8044 90.5081 23.0222 91.5054 22.4747C92.5027 21.9271 93.6761 21.6533 95.0254 21.6533L94.8787 22.8267ZM95.1721 34.2667C95.8956 34.2667 96.5116 34.0711 97.0201 33.68C97.5285 33.2693 97.9196 32.6631 98.1934 31.8613C98.4867 31.0596 98.6334 30.0427 98.6334 28.8107C98.6334 27.4222 98.477 26.288 98.1641 25.408C97.8512 24.528 97.4112 23.8827 96.8441 23.472C96.2965 23.0418 95.6414 22.8267 94.8787 22.8267L95.0254 21.6533C96.3356 21.6533 97.4894 21.9369 98.4867 22.504C99.4841 23.0711 100.266 23.8827 100.833 24.9387C101.42 25.9751 101.713 27.2169 101.713 28.664C101.713 30.0524 101.44 31.2551 100.892 32.272C100.345 33.2889 99.5623 34.0711 98.5454 34.6187C97.5481 35.1662 96.3747 35.44 95.0254 35.44L95.1721 34.2667ZM104.116 35.0587C104.038 34.6871 104.038 34.3253 104.116 33.9733H105.788C105.886 33.2302 105.954 32.5164 105.993 31.832C106.052 31.1476 106.081 30.4436 106.081 29.72V27.3733C106.081 25.9653 105.983 24.5671 105.788 23.1787H104.262C104.184 22.8071 104.184 22.4453 104.262 22.0933C104.947 22.0933 105.68 22.0738 106.462 22.0347C107.245 21.976 108.046 21.8684 108.868 21.712C108.77 22.064 108.692 22.4747 108.633 22.944C108.594 23.3938 108.574 23.8436 108.574 24.2933L108.868 25.6133V29.72C108.868 30.4436 108.887 31.1476 108.926 31.832C108.985 32.5164 109.063 33.2302 109.161 33.9733H111.713C111.791 34.3253 111.791 34.6871 111.713 35.0587C110.677 35.0196 109.855 35 109.249 35C108.643 35 108.056 35 107.489 35C106.922 35 106.365 35 105.817 35C105.289 35 104.722 35.0196 104.116 35.0587ZM112.505 25.4667C112.583 24.7431 112.544 24.176 112.388 23.7653C112.251 23.3351 111.938 23.12 111.449 23.12C110.98 23.12 110.54 23.3351 110.129 23.7653C109.738 24.1956 109.318 24.8116 108.868 25.6133L108.574 24.2933C109.044 23.4524 109.591 22.8071 110.217 22.3573C110.862 21.888 111.635 21.6533 112.534 21.6533C113.258 21.6533 113.835 21.7804 114.265 22.0347C114.715 22.2889 115.038 22.6996 115.233 23.2667C115.429 23.8142 115.497 24.5476 115.438 25.4667H112.505ZM122.664 34.8533C121.589 34.8533 120.758 34.6382 120.171 34.208C119.584 33.7582 119.095 33.2009 118.704 32.536C118.743 32.2427 118.763 31.9493 118.763 31.656C118.783 31.3627 118.792 31.0693 118.792 30.776V27.3733C118.792 25.9653 118.695 24.5671 118.499 23.1787H116.974C116.895 22.8071 116.895 22.4453 116.974 22.0933C117.736 22.0933 118.538 22.0738 119.379 22.0347C120.239 21.976 121.119 21.8684 122.019 21.712C121.902 22.2009 121.814 22.7973 121.755 23.5013C121.696 24.1858 121.647 24.88 121.608 25.584C121.589 26.288 121.579 26.8844 121.579 27.3733V30.776C121.579 31.4996 121.735 32.1156 122.048 32.624C122.381 33.1324 122.958 33.3867 123.779 33.3867C124.463 33.3867 125.07 33.2107 125.598 32.8587C126.145 32.4871 126.615 31.9298 127.006 31.1867V32.8293C126.693 33.2791 126.331 33.6604 125.92 33.9733C125.529 34.2667 125.07 34.4916 124.542 34.648C124.014 34.7849 123.388 34.8533 122.664 34.8533ZM125.04 22.0933C125.803 22.0933 126.634 22.0738 127.534 22.0347C128.433 21.976 129.333 21.8684 130.232 21.712C130.115 22.2009 130.027 22.7973 129.968 23.5013C129.91 24.1858 129.861 24.88 129.822 25.584C129.802 26.288 129.792 26.8844 129.792 27.3733V32.9467C129.792 34.8044 129.45 36.3787 128.766 37.6693C128.101 38.96 127.211 39.9378 126.096 40.6027C125.001 41.2676 123.799 41.6 122.488 41.6C121.002 41.6 119.79 41.2969 118.851 40.6907C117.932 40.104 117.472 39.2436 117.472 38.1093C117.472 37.112 117.805 36.2809 118.47 35.616C119.154 34.9707 119.946 34.4329 120.846 34.0027L121.667 34.5013C120.943 34.9707 120.455 35.4693 120.2 35.9973C119.946 36.5449 119.819 37.1511 119.819 37.816C119.819 38.6373 120.024 39.2729 120.435 39.7227C120.846 40.192 121.53 40.4267 122.488 40.4267C123.623 40.4267 124.512 40.1236 125.158 39.5173C125.823 38.9307 126.292 38.168 126.566 37.2293C126.859 36.2907 127.006 35.3129 127.006 34.296V27.3733C127.006 25.9653 126.908 24.5671 126.712 23.1787H125.04C124.962 22.8071 124.962 22.4453 125.04 22.0933ZM144.077 24.1467C144.82 24.2249 145.553 24.3618 146.277 24.5573C147.02 24.7529 147.704 25.0462 148.33 25.4373C148.956 25.8089 149.454 26.2978 149.826 26.904C150.198 27.5102 150.383 28.2533 150.383 29.1333C150.383 30.3849 150.022 31.4507 149.298 32.3307C148.594 33.1911 147.636 33.856 146.423 34.3253C145.211 34.7751 143.842 35 142.317 35H137.33C136.665 35 136 35 135.335 35C134.67 35 133.996 35.0196 133.311 35.0587C133.233 34.6871 133.233 34.3253 133.311 33.9733H135.423C135.521 33.0933 135.59 32.2427 135.629 31.4213C135.687 30.5804 135.717 29.72 135.717 28.84V20.6267C135.717 19.7467 135.687 18.896 135.629 18.0747C135.59 17.2338 135.521 16.3733 135.423 15.4933H133.311C133.233 15.1218 133.233 14.76 133.311 14.408C133.996 14.4276 134.67 14.4471 135.335 14.4667C136 14.4667 136.665 14.4667 137.33 14.4667H141.73C143.06 14.4667 144.272 14.6427 145.367 14.9947C146.482 15.3271 147.372 15.8453 148.037 16.5493C148.721 17.2533 149.063 18.1724 149.063 19.3067C149.063 20.304 148.809 21.1449 148.301 21.8293C147.792 22.5138 147.157 23.0516 146.394 23.4427C145.631 23.8142 144.859 24.0489 144.077 24.1467ZM139.237 33.8267H142.61C143.94 33.8267 144.957 33.3964 145.661 32.536C146.365 31.656 146.717 30.5902 146.717 29.3387C146.717 28.4978 146.56 27.7449 146.247 27.08C145.934 26.4151 145.436 25.8871 144.751 25.496C144.067 25.0853 143.158 24.88 142.023 24.88H137.33V23.7067H142.023C143.06 23.7067 143.901 23.3351 144.546 22.592C145.211 21.8293 145.543 20.8516 145.543 19.6587C145.543 18.4853 145.201 17.5271 144.517 16.784C143.852 16.0213 142.825 15.64 141.437 15.64H139.237C139.139 16.52 139.061 17.3316 139.002 18.0747C138.963 18.7982 138.943 19.6 138.943 20.48V28.84C138.943 29.72 138.963 30.5511 139.002 31.3333C139.061 32.1156 139.139 32.9467 139.237 33.8267ZM159.618 22.8267C158.914 22.8267 158.298 23.0222 157.77 23.4133C157.262 23.8044 156.861 24.4107 156.568 25.232C156.294 26.0338 156.157 27.0507 156.157 28.2827C156.157 29.6516 156.313 30.7858 156.626 31.6853C156.939 32.5653 157.379 33.2204 157.946 33.6507C158.513 34.0613 159.169 34.2667 159.912 34.2667L159.765 35.44C158.474 35.44 157.321 35.1564 156.304 34.5893C155.306 34.0222 154.514 33.2107 153.928 32.1547C153.361 31.0987 153.077 29.8569 153.077 28.4293C153.077 27.0409 153.351 25.8382 153.898 24.8213C154.465 23.8044 155.248 23.0222 156.245 22.4747C157.242 21.9271 158.416 21.6533 159.765 21.6533L159.618 22.8267ZM159.912 34.2667C160.635 34.2667 161.251 34.0711 161.76 33.68C162.268 33.2693 162.659 32.6631 162.933 31.8613C163.226 31.0596 163.373 30.0427 163.373 28.8107C163.373 27.4222 163.217 26.288 162.904 25.408C162.591 24.528 162.151 23.8827 161.584 23.472C161.036 23.0418 160.381 22.8267 159.618 22.8267L159.765 21.6533C161.075 21.6533 162.229 21.9369 163.226 22.504C164.224 23.0711 165.006 23.8827 165.573 24.9387C166.16 25.9751 166.453 27.2169 166.453 28.664C166.453 30.0524 166.179 31.2551 165.632 32.272C165.084 33.2889 164.302 34.0711 163.285 34.6187C162.288 35.1662 161.114 35.44 159.765 35.44L159.912 34.2667ZM173.959 35.44C172.942 35.44 172.121 35.2053 171.495 34.736C170.87 34.2471 170.557 33.4649 170.557 32.3893V25.9067C170.557 25.3787 170.547 24.7822 170.527 24.1173C170.527 23.4329 170.508 22.7484 170.469 22.064C170.449 21.36 170.4 20.7342 170.322 20.1867C170.674 20.0693 170.987 19.9129 171.261 19.7173C171.554 19.5022 171.808 19.2578 172.023 18.984C172.258 18.7102 172.444 18.4267 172.581 18.1333C172.894 18.0747 173.206 18.0747 173.519 18.1333C173.441 19.4436 173.392 20.7538 173.373 22.064C173.353 23.3547 173.343 24.6551 173.343 25.9653V32.272C173.343 32.9369 173.441 33.416 173.637 33.7093C173.852 33.9831 174.155 34.12 174.546 34.12C174.839 34.12 175.142 34.0516 175.455 33.9147C175.768 33.7778 176.032 33.592 176.247 33.3573C176.404 33.4551 176.541 33.5724 176.658 33.7093C176.775 33.8462 176.893 33.9929 177.01 34.1493C176.658 34.5209 176.257 34.824 175.807 35.0587C175.377 35.3129 174.761 35.44 173.959 35.44ZM168.503 23.2667C168.445 22.8756 168.445 22.4844 168.503 22.0933H176.717C176.775 22.4844 176.775 22.8756 176.717 23.2667H168.503Z" fill="black"/>
<path d="M59.7703 43V37.6667H60.3849V39.6354H60.437C60.4821 39.566 60.5446 39.4774 60.6245 39.3698C60.7061 39.2604 60.8224 39.1632 60.9735 39.0781C61.1262 38.9913 61.3328 38.9479 61.5933 38.9479C61.9301 38.9479 62.2269 39.0321 62.4839 39.2005C62.7408 39.3689 62.9414 39.6076 63.0854 39.9167C63.2295 40.2257 63.3016 40.5903 63.3016 41.0104C63.3016 41.434 63.2295 41.8012 63.0854 42.112C62.9414 42.421 62.7417 42.6606 62.4865 42.8307C62.2313 42.9991 61.937 43.0833 61.6037 43.0833C61.3467 43.0833 61.141 43.0408 60.9865 42.9557C60.832 42.8689 60.7131 42.7708 60.6297 42.6615C60.5464 42.5503 60.4821 42.4583 60.437 42.3854H60.3641V43H59.7703ZM60.3745 41C60.3745 41.3021 60.4188 41.5686 60.5073 41.7995C60.5959 42.0286 60.7252 42.2083 60.8953 42.3385C61.0655 42.467 61.2738 42.5312 61.5203 42.5312C61.7773 42.5312 61.9917 42.4635 62.1636 42.3281C62.3372 42.191 62.4674 42.0069 62.5542 41.776C62.6427 41.5434 62.687 41.2847 62.687 41C62.687 40.7187 62.6436 40.4653 62.5568 40.2396C62.4717 40.0122 62.3424 39.8325 62.1688 39.7005C61.9969 39.5668 61.7808 39.5 61.5203 39.5C61.2703 39.5 61.0603 39.5634 60.8901 39.6901C60.72 39.8151 60.5915 39.9905 60.5047 40.2161C60.4179 40.4401 60.3745 40.7014 60.3745 41ZM64.4943 44.5C64.3901 44.5 64.2973 44.4913 64.2157 44.474C64.1341 44.4583 64.0776 44.4427 64.0464 44.4271L64.2026 43.8854C64.3519 43.9236 64.4839 43.9375 64.5985 43.9271C64.7131 43.9167 64.8146 43.8655 64.9032 43.7734C64.9934 43.6832 65.0759 43.5365 65.1506 43.3333L65.2651 43.0208L63.786 39H64.4526L65.5568 42.1875H65.5985L66.7026 39H67.3693L65.6714 43.5833C65.595 43.7899 65.5004 43.9609 65.3875 44.0964C65.2747 44.2335 65.1436 44.3351 64.9943 44.401C64.8467 44.467 64.6801 44.5 64.4943 44.5ZM73.243 39C73.2118 38.7361 73.085 38.5312 72.8628 38.3854C72.6406 38.2396 72.368 38.1667 72.0451 38.1667C71.809 38.1667 71.6024 38.2049 71.4253 38.2812C71.2499 38.3576 71.1128 38.4627 71.0138 38.5964C70.9166 38.73 70.868 38.8819 70.868 39.0521C70.868 39.1944 70.9019 39.3168 70.9696 39.4193C71.039 39.52 71.1275 39.6042 71.2352 39.6719C71.3428 39.7378 71.4557 39.7925 71.5737 39.8359C71.6918 39.8776 71.8003 39.9115 71.8993 39.9375L72.4409 40.0833C72.5798 40.1198 72.7343 40.1701 72.9045 40.2344C73.0763 40.2986 73.2404 40.3863 73.3966 40.4974C73.5546 40.6068 73.6848 40.7474 73.7873 40.9193C73.8897 41.0911 73.9409 41.3021 73.9409 41.5521C73.9409 41.8403 73.8654 42.1007 73.7144 42.3333C73.565 42.566 73.3463 42.7509 73.0581 42.888C72.7716 43.0252 72.4236 43.0938 72.0138 43.0938C71.6319 43.0938 71.3012 43.0321 71.0216 42.9089C70.7439 42.7856 70.5251 42.6137 70.3654 42.3932C70.2074 42.1727 70.118 41.9167 70.0972 41.625H70.7638C70.7812 41.8264 70.8489 41.9931 70.967 42.125C71.0868 42.2552 71.2378 42.3524 71.4201 42.4167C71.6041 42.4792 71.802 42.5104 72.0138 42.5104C72.2604 42.5104 72.4817 42.4705 72.6779 42.3906C72.8741 42.309 73.0295 42.1962 73.144 42.0521C73.2586 41.9062 73.3159 41.7361 73.3159 41.5417C73.3159 41.3646 73.2664 41.2205 73.1675 41.1094C73.0685 40.9983 72.9383 40.908 72.7769 40.8385C72.6154 40.7691 72.4409 40.7083 72.2534 40.6562L71.5972 40.4687C71.1805 40.349 70.8506 40.178 70.6076 39.9557C70.3645 39.7335 70.243 39.4427 70.243 39.0833C70.243 38.7847 70.3237 38.5243 70.4852 38.3021C70.6484 38.0781 70.8671 37.9045 71.1414 37.7812C71.4175 37.6562 71.7256 37.5937 72.0659 37.5937C72.4097 37.5937 72.7152 37.6554 72.9826 37.7786C73.2499 37.9002 73.4618 38.0668 73.618 38.2786C73.776 38.4905 73.8593 38.7309 73.868 39H73.243ZM76.659 39V39.5208H74.5861V39H76.659ZM75.1903 38.0417H75.8048V41.8542C75.8048 42.0278 75.83 42.158 75.8804 42.2448C75.9325 42.3299 75.9984 42.3872 76.0783 42.4167C76.1599 42.4444 76.2458 42.4583 76.3361 42.4583C76.4038 42.4583 76.4594 42.4549 76.5028 42.4479C76.5462 42.4392 76.5809 42.4323 76.6069 42.4271L76.7319 42.9792C76.6903 42.9948 76.6321 43.0104 76.5575 43.026C76.4828 43.0434 76.3882 43.0521 76.2736 43.0521C76.1 43.0521 75.9298 43.0148 75.7632 42.9401C75.5983 42.8655 75.4611 42.7517 75.3517 42.599C75.2441 42.4462 75.1903 42.2535 75.1903 42.0208V38.0417ZM79.1655 43.0833C78.8044 43.0833 78.4876 42.9974 78.215 42.8255C77.9442 42.6536 77.7324 42.4132 77.5796 42.1042C77.4285 41.7951 77.353 41.434 77.353 41.0208C77.353 40.6042 77.4285 40.2405 77.5796 39.9297C77.7324 39.6189 77.9442 39.3776 78.215 39.2057C78.4876 39.0339 78.8044 38.9479 79.1655 38.9479C79.5266 38.9479 79.8426 39.0339 80.1134 39.2057C80.386 39.3776 80.5978 39.6189 80.7489 39.9297C80.9016 40.2405 80.978 40.6042 80.978 41.0208C80.978 41.434 80.9016 41.7951 80.7489 42.1042C80.5978 42.4132 80.386 42.6536 80.1134 42.8255C79.8426 42.9974 79.5266 43.0833 79.1655 43.0833ZM79.1655 42.5312C79.4398 42.5312 79.6655 42.4609 79.8426 42.3203C80.0197 42.1797 80.1508 41.9948 80.2358 41.7656C80.3209 41.5365 80.3634 41.2882 80.3634 41.0208C80.3634 40.7535 80.3209 40.5043 80.2358 40.2734C80.1508 40.0425 80.0197 39.8559 79.8426 39.7135C79.6655 39.5712 79.4398 39.5 79.1655 39.5C78.8912 39.5 78.6655 39.5712 78.4884 39.7135C78.3114 39.8559 78.1803 40.0425 78.0952 40.2734C78.0101 40.5043 77.9676 40.7535 77.9676 41.0208C77.9676 41.2882 78.0101 41.5365 78.0952 41.7656C78.1803 41.9948 78.3114 42.1797 78.4884 42.3203C78.6655 42.4609 78.8912 42.5312 79.1655 42.5312ZM81.9162 43V39H82.5099V39.6042H82.5516C82.6245 39.4062 82.7565 39.2457 82.9474 39.1224C83.1384 38.9991 83.3537 38.9375 83.5933 38.9375C83.6384 38.9375 83.6948 38.9384 83.7625 38.9401C83.8302 38.9418 83.8815 38.9444 83.9162 38.9479V39.5729C83.8953 39.5677 83.8476 39.5599 83.7729 39.5495C83.7 39.5373 83.6228 39.5312 83.5412 39.5312C83.3467 39.5312 83.1731 39.572 83.0203 39.6536C82.8693 39.7335 82.7495 39.8446 82.661 39.987C82.5742 40.1276 82.5308 40.2882 82.5308 40.4687V43H81.9162ZM85.1623 44.5C85.0581 44.5 84.9652 44.4913 84.8836 44.474C84.802 44.4583 84.7456 44.4427 84.7144 44.4271L84.8706 43.8854C85.0199 43.9236 85.1519 43.9375 85.2664 43.9271C85.381 43.9167 85.4826 43.8655 85.5711 43.7734C85.6614 43.6832 85.7439 43.5365 85.8185 43.3333L85.9331 43.0208L84.4539 39H85.1206L86.2248 42.1875H86.2664L87.3706 39H88.0373L86.3394 43.5833C86.263 43.7899 86.1683 43.9609 86.0555 44.0964C85.9427 44.2335 85.8116 44.3351 85.6623 44.401C85.5147 44.467 85.348 44.5 85.1623 44.5ZM88.9318 37.6667H89.7026L91.5151 42.0937H91.5776L93.3901 37.6667H94.161V43H93.5568V38.9479H93.5047L91.8381 43H91.2547L89.5881 38.9479H89.536V43H88.9318V37.6667ZM96.5496 43.0938C96.2962 43.0938 96.0661 43.046 95.8595 42.9505C95.6529 42.8533 95.4889 42.7135 95.3674 42.5312C95.2458 42.3472 95.1851 42.125 95.1851 41.8646C95.1851 41.6354 95.2302 41.4497 95.3205 41.3073C95.4108 41.1632 95.5314 41.0503 95.6825 40.9687C95.8335 40.8872 96.0002 40.8264 96.1825 40.7865C96.3665 40.7448 96.5514 40.7118 96.7371 40.6875C96.9802 40.6562 97.1772 40.6328 97.3283 40.6172C97.4811 40.5998 97.5922 40.5712 97.6616 40.5312C97.7328 40.4913 97.7684 40.4219 97.7684 40.3229V40.3021C97.7684 40.0451 97.6981 39.8455 97.5575 39.7031C97.4186 39.5608 97.2076 39.4896 96.9246 39.4896C96.6312 39.4896 96.4012 39.5538 96.2345 39.6823C96.0679 39.8108 95.9507 39.9479 95.883 40.0937L95.2996 39.8854C95.4038 39.6424 95.5427 39.4531 95.7163 39.3177C95.8917 39.1806 96.0826 39.0851 96.2892 39.0312C96.4976 38.9757 96.7024 38.9479 96.9038 38.9479C97.0323 38.9479 97.1799 38.9635 97.3465 38.9948C97.5149 39.0243 97.6772 39.0859 97.8335 39.1797C97.9915 39.2734 98.1226 39.4149 98.2267 39.6042C98.3309 39.7934 98.383 40.0469 98.383 40.3646V43H97.7684V42.4583H97.7371C97.6955 42.5451 97.626 42.638 97.5288 42.737C97.4316 42.8359 97.3022 42.9201 97.1408 42.9896C96.9793 43.059 96.7823 43.0938 96.5496 43.0938ZM96.6434 42.5417C96.8864 42.5417 97.0913 42.4939 97.258 42.3984C97.4264 42.303 97.5531 42.1797 97.6382 42.0286C97.725 41.8776 97.7684 41.7187 97.7684 41.5521V40.9896C97.7424 41.0208 97.6851 41.0495 97.5965 41.0755C97.5097 41.0998 97.409 41.1215 97.2944 41.1406C97.1816 41.158 97.0713 41.1736 96.9637 41.1875C96.8578 41.1997 96.7719 41.2101 96.7059 41.2187C96.5462 41.2396 96.3969 41.2734 96.258 41.3203C96.1208 41.3655 96.0097 41.434 95.9246 41.526C95.8413 41.6163 95.7996 41.7396 95.7996 41.8958C95.7996 42.1094 95.8786 42.2708 96.0366 42.3802C96.1963 42.4878 96.3986 42.5417 96.6434 42.5417ZM99.5047 44.5V39H100.098V39.6354H100.171C100.217 39.566 100.279 39.4774 100.359 39.3698C100.44 39.2604 100.557 39.1632 100.708 39.0781C100.861 38.9913 101.067 38.9479 101.328 38.9479C101.664 38.9479 101.961 39.0321 102.218 39.2005C102.475 39.3689 102.676 39.6076 102.82 39.9167C102.964 40.2257 103.036 40.5903 103.036 41.0104C103.036 41.434 102.964 41.8012 102.82 42.112C102.676 42.421 102.476 42.6606 102.221 42.8307C101.966 42.9991 101.671 43.0833 101.338 43.0833C101.081 43.0833 100.875 43.0408 100.721 42.9557C100.566 42.8689 100.447 42.7708 100.364 42.6615C100.281 42.5503 100.217 42.4583 100.171 42.3854H100.119V44.5H99.5047ZM100.109 41C100.109 41.3021 100.153 41.5686 100.242 41.7995C100.33 42.0286 100.46 42.2083 100.63 42.3385C100.8 42.467 101.008 42.5312 101.255 42.5312C101.512 42.5312 101.726 42.4635 101.898 42.3281C102.072 42.191 102.202 42.0069 102.289 41.776C102.377 41.5434 102.421 41.2847 102.421 41C102.421 40.7187 102.378 40.4653 102.291 40.2396C102.206 40.0122 102.077 39.8325 101.903 39.7005C101.731 39.5668 101.515 39.5 101.255 39.5C101.005 39.5 100.795 39.5634 100.625 39.6901C100.454 39.8151 100.326 39.9905 100.239 40.2161C100.152 40.4401 100.109 40.7014 100.109 41ZM103.973 44.5V39H104.567V39.6354H104.64C104.685 39.566 104.748 39.4774 104.828 39.3698C104.909 39.2604 105.026 39.1632 105.177 39.0781C105.329 38.9913 105.536 38.9479 105.796 38.9479C106.133 38.9479 106.43 39.0321 106.687 39.2005C106.944 39.3689 107.144 39.6076 107.289 39.9167C107.433 40.2257 107.505 40.5903 107.505 41.0104C107.505 41.434 107.433 41.8012 107.289 42.112C107.144 42.421 106.945 42.6606 106.69 42.8307C106.434 42.9991 106.14 43.0833 105.807 43.0833C105.55 43.0833 105.344 43.0408 105.19 42.9557C105.035 42.8689 104.916 42.7708 104.833 42.6615C104.75 42.5503 104.685 42.4583 104.64 42.3854H104.588V44.5H103.973ZM104.578 41C104.578 41.3021 104.622 41.5686 104.71 41.7995C104.799 42.0286 104.928 42.2083 105.098 42.3385C105.269 42.467 105.477 42.5312 105.723 42.5312C105.98 42.5312 106.195 42.4635 106.367 42.3281C106.54 42.191 106.671 42.0069 106.757 41.776C106.846 41.5434 106.89 41.2847 106.89 41C106.89 40.7187 106.847 40.4653 106.76 40.2396C106.675 40.0122 106.546 39.8325 106.372 39.7005C106.2 39.5668 105.984 39.5 105.723 39.5C105.473 39.5 105.263 39.5634 105.093 39.6901C104.923 39.8151 104.795 39.9905 104.708 40.2161C104.621 40.4401 104.578 40.7014 104.578 41ZM110.119 43.0833C109.734 43.0833 109.401 42.9983 109.122 42.8281C108.844 42.6562 108.63 42.4167 108.479 42.1094C108.329 41.8003 108.255 41.441 108.255 41.0312C108.255 40.6215 108.329 40.2604 108.479 39.9479C108.63 39.6337 108.84 39.3889 109.109 39.2135C109.38 39.0365 109.696 38.9479 110.057 38.9479C110.265 38.9479 110.471 38.9826 110.674 39.0521C110.877 39.1215 111.062 39.2344 111.229 39.3906C111.395 39.5451 111.528 39.75 111.627 40.0052C111.726 40.2604 111.776 40.5747 111.776 40.9479V41.2083H108.692V40.6771H111.151C111.151 40.4514 111.105 40.25 111.015 40.0729C110.927 39.8958 110.8 39.7561 110.635 39.6536C110.472 39.5512 110.279 39.5 110.057 39.5C109.812 39.5 109.6 39.5608 109.421 39.6823C109.244 39.8021 109.108 39.9583 109.013 40.151C108.917 40.3437 108.869 40.5503 108.869 40.7708V41.125C108.869 41.4271 108.921 41.6832 109.026 41.8932C109.131 42.1016 109.278 42.2604 109.466 42.3698C109.653 42.4774 109.871 42.5312 110.119 42.5312C110.281 42.5312 110.427 42.5087 110.557 42.4635C110.689 42.4167 110.802 42.3472 110.898 42.2552C110.993 42.1615 111.067 42.0451 111.119 41.9062L111.713 42.0729C111.651 42.2743 111.546 42.4514 111.398 42.6042C111.25 42.7552 111.068 42.8733 110.851 42.9583C110.634 43.0417 110.39 43.0833 110.119 43.0833ZM112.71 43V39H113.304V39.6042H113.346C113.419 39.4062 113.551 39.2457 113.742 39.1224C113.933 38.9991 114.148 38.9375 114.388 38.9375C114.433 38.9375 114.489 38.9384 114.557 38.9401C114.625 38.9418 114.676 38.9444 114.71 38.9479V39.5729C114.69 39.5677 114.642 39.5599 114.567 39.5495C114.494 39.5373 114.417 39.5312 114.335 39.5312C114.141 39.5312 113.967 39.572 113.815 39.6536C113.664 39.7335 113.544 39.8446 113.455 39.987C113.368 40.1276 113.325 40.2882 113.325 40.4687V43H112.71Z" fill="black"/>
<path d="M13.3335 30.667H46.0002C49.6821 30.667 52.6668 33.6518 52.6668 37.3337C52.6668 41.0156 49.6821 44.0003 46.0002 44.0003H13.3335V30.667Z" fill="#FFA100"/>
<path d="M13.3335 14.666H36.6668C40.3487 14.666 43.3335 17.6508 43.3335 21.3327C43.3335 25.0146 40.3487 27.9993 36.6668 27.9993H13.3335V14.666Z" fill="#008582"/>
</g>
<defs>
<clipPath id="clip0_1592_860">
<rect width="166" height="33.3333" fill="white" transform="translate(13.3335 13.333)"/>
</clipPath>
</defs>
</svg>
