<svg width="204" height="60" viewBox="0 0 204 60" fill="none" xmlns="http://www.w3.org/2000/svg">
<g clip-path="url(#clip0_814_478)">
<path d="M68.1203 35.4107C67.1034 35.4107 66.067 35.2836 65.011 35.0293C63.9745 34.7751 63.0065 34.4231 62.107 33.9733V28.6933C62.4199 28.6347 62.7327 28.6347 63.0456 28.6933C63.1434 29.7493 63.4465 30.6978 63.955 31.5387C64.4634 32.36 65.1283 33.0151 65.9496 33.504C66.7905 33.9929 67.7194 34.2373 68.7363 34.2373C70.1443 34.2373 71.2687 33.9049 72.1096 33.24C72.9701 32.5556 73.4003 31.6169 73.4003 30.424C73.4003 29.6809 73.2047 29.0649 72.8136 28.576C72.4225 28.0871 71.8945 27.6764 71.2296 27.344C70.5843 26.992 69.8705 26.6791 69.0883 26.4053C68.3256 26.112 67.5532 25.7991 66.771 25.4667C66.0083 25.1342 65.2945 24.7333 64.6296 24.264C63.9843 23.7751 63.4661 23.1787 63.075 22.4747C62.6839 21.7511 62.4883 20.8516 62.4883 19.776C62.4883 18.5636 62.7523 17.5369 63.2803 16.696C63.8279 15.8356 64.6101 15.1804 65.627 14.7307C66.6439 14.2809 67.8563 14.056 69.2643 14.056C70.5159 14.056 71.5719 14.1831 72.4323 14.4373C73.2927 14.6916 74.0456 15.024 74.691 15.4347V20.04C74.3781 20.0987 74.0652 20.0987 73.7523 20.04C73.6154 18.6516 73.1363 17.5076 72.315 16.608C71.4936 15.6889 70.3985 15.2293 69.0296 15.2293C67.7976 15.2293 66.8101 15.5129 66.067 16.08C65.3434 16.6276 64.9816 17.3902 64.9816 18.368C64.9816 19.1698 65.1772 19.8347 65.5683 20.3627C65.979 20.8711 66.5167 21.3111 67.1816 21.6827C67.8661 22.0347 68.5994 22.3573 69.3816 22.6507C70.1834 22.944 70.9754 23.2667 71.7576 23.6187C72.5594 23.9511 73.2927 24.3618 73.9576 24.8507C74.6421 25.32 75.1799 25.9164 75.571 26.64C75.9816 27.3636 76.187 28.2729 76.187 29.368C76.187 30.5609 75.8447 31.6169 75.1603 32.536C74.4954 33.4356 73.5567 34.1396 72.3443 34.648C71.1514 35.1564 69.7434 35.4107 68.1203 35.4107ZM83.6385 35.44C82.6217 35.44 81.8003 35.2053 81.1745 34.736C80.5488 34.2471 80.2359 33.4649 80.2359 32.3893V25.9067C80.2359 25.3787 80.2261 24.7822 80.2065 24.1173C80.2065 23.4329 80.187 22.7484 80.1479 22.064C80.1283 21.36 80.0794 20.7342 80.0012 20.1867C80.3532 20.0693 80.6661 19.9129 80.9399 19.7173C81.2332 19.5022 81.4874 19.2578 81.7025 18.984C81.9372 18.7102 82.123 18.4267 82.2599 18.1333C82.5728 18.0747 82.8857 18.0747 83.1985 18.1333C83.1203 19.4436 83.0714 20.7538 83.0519 22.064C83.0323 23.3547 83.0225 24.6551 83.0225 25.9653V32.272C83.0225 32.9369 83.1203 33.416 83.3159 33.7093C83.531 33.9831 83.8341 34.12 84.2252 34.12C84.5185 34.12 84.8217 34.0516 85.1345 33.9147C85.4474 33.7778 85.7114 33.592 85.9265 33.3573C86.083 33.4551 86.2199 33.5724 86.3372 33.7093C86.4545 33.8462 86.5719 33.9929 86.6892 34.1493C86.3372 34.5209 85.9363 34.824 85.4865 35.0587C85.0563 35.3129 84.4403 35.44 83.6385 35.44ZM78.1825 23.2667C78.1239 22.8756 78.1239 22.4844 78.1825 22.0933H86.3959C86.4545 22.4844 86.4545 22.8756 86.3959 23.2667H78.1825ZM94.8783 22.8267C94.1743 22.8267 93.5583 23.0222 93.0303 23.4133C92.5218 23.8044 92.1209 24.4107 91.8276 25.232C91.5538 26.0338 91.4169 27.0507 91.4169 28.2827C91.4169 29.6516 91.5734 30.7858 91.8863 31.6853C92.1991 32.5653 92.6391 33.2204 93.2063 33.6507C93.7734 34.0613 94.4285 34.2667 95.1716 34.2667L95.0249 35.44C93.7343 35.44 92.5805 35.1564 91.5636 34.5893C90.5663 34.0222 89.7743 33.2107 89.1876 32.1547C88.6205 31.0987 88.3369 29.8569 88.3369 28.4293C88.3369 27.0409 88.6107 25.8382 89.1583 24.8213C89.7254 23.8044 90.5076 23.0222 91.5049 22.4747C92.5023 21.9271 93.6756 21.6533 95.0249 21.6533L94.8783 22.8267ZM95.1716 34.2667C95.8951 34.2667 96.5111 34.0711 97.0196 33.68C97.528 33.2693 97.9191 32.6631 98.1929 31.8613C98.4863 31.0596 98.6329 30.0427 98.6329 28.8107C98.6329 27.4222 98.4765 26.288 98.1636 25.408C97.8507 24.528 97.4107 23.8827 96.8436 23.472C96.296 23.0418 95.6409 22.8267 94.8783 22.8267L95.0249 21.6533C96.3351 21.6533 97.4889 21.9369 98.4863 22.504C99.4836 23.0711 100.266 23.8827 100.833 24.9387C101.42 25.9751 101.713 27.2169 101.713 28.664C101.713 30.0524 101.439 31.2551 100.892 32.272C100.344 33.2889 99.5618 34.0711 98.5449 34.6187C97.5476 35.1662 96.3743 35.44 95.0249 35.44L95.1716 34.2667ZM104.115 35.0587C104.037 34.6871 104.037 34.3253 104.115 33.9733H105.787C105.885 33.2302 105.954 32.5164 105.993 31.832C106.051 31.1476 106.081 30.4436 106.081 29.72V27.3733C106.081 25.9653 105.983 24.5671 105.787 23.1787H104.262C104.184 22.8071 104.184 22.4453 104.262 22.0933C104.946 22.0933 105.68 22.0738 106.462 22.0347C107.244 21.976 108.046 21.8684 108.867 21.712C108.77 22.064 108.691 22.4747 108.633 22.944C108.594 23.3938 108.574 23.8436 108.574 24.2933L108.867 25.6133V29.72C108.867 30.4436 108.887 31.1476 108.926 31.832C108.985 32.5164 109.063 33.2302 109.161 33.9733H111.713C111.791 34.3253 111.791 34.6871 111.713 35.0587C110.676 35.0196 109.855 35 109.249 35C108.642 35 108.056 35 107.489 35C106.922 35 106.364 35 105.817 35C105.289 35 104.722 35.0196 104.115 35.0587ZM112.505 25.4667C112.583 24.7431 112.544 24.176 112.387 23.7653C112.25 23.3351 111.938 23.12 111.449 23.12C110.979 23.12 110.539 23.3351 110.129 23.7653C109.738 24.1956 109.317 24.8116 108.867 25.6133L108.574 24.2933C109.043 23.4524 109.591 22.8071 110.217 22.3573C110.862 21.888 111.634 21.6533 112.534 21.6533C113.258 21.6533 113.834 21.7804 114.265 22.0347C114.714 22.2889 115.037 22.6996 115.233 23.2667C115.428 23.8142 115.497 24.5476 115.438 25.4667H112.505ZM122.664 34.8533C121.588 34.8533 120.757 34.6382 120.17 34.208C119.584 33.7582 119.095 33.2009 118.704 32.536C118.743 32.2427 118.762 31.9493 118.762 31.656C118.782 31.3627 118.792 31.0693 118.792 30.776V27.3733C118.792 25.9653 118.694 24.5671 118.498 23.1787H116.973C116.895 22.8071 116.895 22.4453 116.973 22.0933C117.736 22.0933 118.538 22.0738 119.378 22.0347C120.239 21.976 121.119 21.8684 122.018 21.712C121.901 22.2009 121.813 22.7973 121.754 23.5013C121.696 24.1858 121.647 24.88 121.608 25.584C121.588 26.288 121.578 26.8844 121.578 27.3733V30.776C121.578 31.4996 121.735 32.1156 122.048 32.624C122.38 33.1324 122.957 33.3867 123.778 33.3867C124.463 33.3867 125.069 33.2107 125.597 32.8587C126.145 32.4871 126.614 31.9298 127.005 31.1867V32.8293C126.692 33.2791 126.33 33.6604 125.92 33.9733C125.529 34.2667 125.069 34.4916 124.541 34.648C124.013 34.7849 123.387 34.8533 122.664 34.8533ZM125.04 22.0933C125.802 22.0933 126.634 22.0738 127.533 22.0347C128.433 21.976 129.332 21.8684 130.232 21.712C130.114 22.2009 130.026 22.7973 129.968 23.5013C129.909 24.1858 129.86 24.88 129.821 25.584C129.802 26.288 129.792 26.8844 129.792 27.3733V32.9467C129.792 34.8044 129.45 36.3787 128.765 37.6693C128.1 38.96 127.21 39.9378 126.096 40.6027C125.001 41.2676 123.798 41.6 122.488 41.6C121.002 41.6 119.789 41.2969 118.85 40.6907C117.931 40.104 117.472 39.2436 117.472 38.1093C117.472 37.112 117.804 36.2809 118.469 35.616C119.154 34.9707 119.946 34.4329 120.845 34.0027L121.666 34.5013C120.943 34.9707 120.454 35.4693 120.2 35.9973C119.946 36.5449 119.818 37.1511 119.818 37.816C119.818 38.6373 120.024 39.2729 120.434 39.7227C120.845 40.192 121.53 40.4267 122.488 40.4267C123.622 40.4267 124.512 40.1236 125.157 39.5173C125.822 38.9307 126.291 38.168 126.565 37.2293C126.858 36.2907 127.005 35.3129 127.005 34.296V27.3733C127.005 25.9653 126.907 24.5671 126.712 23.1787H125.04C124.962 22.8071 124.962 22.4453 125.04 22.0933ZM144.076 24.1467C144.819 24.2249 145.553 24.3618 146.276 24.5573C147.019 24.7529 147.704 25.0462 148.33 25.4373C148.955 25.8089 149.454 26.2978 149.826 26.904C150.197 27.5102 150.383 28.2533 150.383 29.1333C150.383 30.3849 150.021 31.4507 149.298 32.3307C148.594 33.1911 147.635 33.856 146.423 34.3253C145.21 34.7751 143.842 35 142.316 35H137.33C136.665 35 136 35 135.335 35C134.67 35 133.995 35.0196 133.311 35.0587C133.233 34.6871 133.233 34.3253 133.311 33.9733H135.423C135.521 33.0933 135.589 32.2427 135.628 31.4213C135.687 30.5804 135.716 29.72 135.716 28.84V20.6267C135.716 19.7467 135.687 18.896 135.628 18.0747C135.589 17.2338 135.521 16.3733 135.423 15.4933H133.311C133.233 15.1218 133.233 14.76 133.311 14.408C133.995 14.4276 134.67 14.4471 135.335 14.4667C136 14.4667 136.665 14.4667 137.33 14.4667H141.73C143.059 14.4667 144.272 14.6427 145.367 14.9947C146.482 15.3271 147.371 15.8453 148.036 16.5493C148.721 17.2533 149.063 18.1724 149.063 19.3067C149.063 20.304 148.809 21.1449 148.3 21.8293C147.792 22.5138 147.156 23.0516 146.394 23.4427C145.631 23.8142 144.858 24.0489 144.076 24.1467ZM139.236 33.8267H142.61C143.939 33.8267 144.956 33.3964 145.66 32.536C146.364 31.656 146.716 30.5902 146.716 29.3387C146.716 28.4978 146.56 27.7449 146.247 27.08C145.934 26.4151 145.435 25.8871 144.751 25.496C144.066 25.0853 143.157 24.88 142.023 24.88H137.33V23.7067H142.023C143.059 23.7067 143.9 23.3351 144.546 22.592C145.21 21.8293 145.543 20.8516 145.543 19.6587C145.543 18.4853 145.201 17.5271 144.516 16.784C143.851 16.0213 142.825 15.64 141.436 15.64H139.236C139.138 16.52 139.06 17.3316 139.002 18.0747C138.962 18.7982 138.943 19.6 138.943 20.48V28.84C138.943 29.72 138.962 30.5511 139.002 31.3333C139.06 32.1156 139.138 32.9467 139.236 33.8267ZM159.618 22.8267C158.914 22.8267 158.298 23.0222 157.77 23.4133C157.261 23.8044 156.861 24.4107 156.567 25.232C156.293 26.0338 156.157 27.0507 156.157 28.2827C156.157 29.6516 156.313 30.7858 156.626 31.6853C156.939 32.5653 157.379 33.2204 157.946 33.6507C158.513 34.0613 159.168 34.2667 159.911 34.2667L159.765 35.44C158.474 35.44 157.32 35.1564 156.303 34.5893C155.306 34.0222 154.514 33.2107 153.927 32.1547C153.36 31.0987 153.077 29.8569 153.077 28.4293C153.077 27.0409 153.35 25.8382 153.898 24.8213C154.465 23.8044 155.247 23.0222 156.245 22.4747C157.242 21.9271 158.415 21.6533 159.765 21.6533L159.618 22.8267ZM159.911 34.2667C160.635 34.2667 161.251 34.0711 161.759 33.68C162.268 33.2693 162.659 32.6631 162.933 31.8613C163.226 31.0596 163.373 30.0427 163.373 28.8107C163.373 27.4222 163.216 26.288 162.903 25.408C162.59 24.528 162.15 23.8827 161.583 23.472C161.036 23.0418 160.381 22.8267 159.618 22.8267L159.765 21.6533C161.075 21.6533 162.229 21.9369 163.226 22.504C164.223 23.0711 165.005 23.8827 165.573 24.9387C166.159 25.9751 166.453 27.2169 166.453 28.664C166.453 30.0524 166.179 31.2551 165.631 32.272C165.084 33.2889 164.301 34.0711 163.285 34.6187C162.287 35.1662 161.114 35.44 159.765 35.44L159.911 34.2667ZM173.959 35.44C172.942 35.44 172.121 35.2053 171.495 34.736C170.869 34.2471 170.556 33.4649 170.556 32.3893V25.9067C170.556 25.3787 170.546 24.7822 170.527 24.1173C170.527 23.4329 170.507 22.7484 170.468 22.064C170.449 21.36 170.4 20.7342 170.322 20.1867C170.674 20.0693 170.986 19.9129 171.26 19.7173C171.554 19.5022 171.808 19.2578 172.023 18.984C172.258 18.7102 172.443 18.4267 172.58 18.1333C172.893 18.0747 173.206 18.0747 173.519 18.1333C173.441 19.4436 173.392 20.7538 173.372 22.064C173.353 23.3547 173.343 24.6551 173.343 25.9653V32.272C173.343 32.9369 173.441 33.416 173.636 33.7093C173.851 33.9831 174.154 34.12 174.546 34.12C174.839 34.12 175.142 34.0516 175.455 33.9147C175.768 33.7778 176.032 33.592 176.247 33.3573C176.403 33.4551 176.54 33.5724 176.658 33.7093C176.775 33.8462 176.892 33.9929 177.01 34.1493C176.658 34.5209 176.257 34.824 175.807 35.0587C175.377 35.3129 174.761 35.44 173.959 35.44ZM168.503 23.2667C168.444 22.8756 168.444 22.4844 168.503 22.0933H176.716C176.775 22.4844 176.775 22.8756 176.716 23.2667H168.503Z" fill="black"/>
<path d="M62.5208 40.0039C63.0388 40.0039 63.4387 40.1829 63.7204 40.541C64.0021 40.8967 64.1429 41.3944 64.1429 42.0342C64.1429 42.6835 63.9997 43.186 63.7132 43.5417C63.4268 43.895 63.0293 44.0716 62.5208 44.0716C62.2559 44.0716 62.0195 44.0239 61.8118 43.9284C61.6042 43.8329 61.4347 43.6909 61.3034 43.5023H61.2533C61.1793 43.7887 61.1351 43.9546 61.1208 44H60.6589V38.4284H61.3034V39.7819C61.3034 40.0516 61.2914 40.3214 61.2676 40.5911H61.3034C61.5684 40.1997 61.9742 40.0039 62.5208 40.0039ZM62.4134 40.5374C62.0171 40.5374 61.7331 40.6496 61.5612 40.874C61.3893 41.0984 61.3034 41.478 61.3034 42.0127V42.0413C61.3034 42.5785 61.3905 42.9628 61.5648 43.1943C61.7414 43.4235 62.0291 43.5381 62.4277 43.5381C62.781 43.5381 63.0436 43.4092 63.2155 43.1514C63.3898 42.8912 63.4769 42.5164 63.4769 42.027C63.4769 41.5305 63.3898 41.1581 63.2155 40.9098C63.0412 40.6616 62.7739 40.5374 62.4134 40.5374ZM64.4831 40.0684H65.1742L66.0228 42.3063C66.2018 42.7933 66.3116 43.1502 66.3522 43.377H66.3809C66.4023 43.2886 66.4513 43.1239 66.5277 42.8828C66.6041 42.6393 66.6685 42.4448 66.721 42.2992L67.5195 40.0684H68.2142L66.5205 44.5443C66.3558 44.9787 66.16 45.2903 65.9333 45.4788C65.7065 45.6674 65.426 45.7617 65.0918 45.7617C64.9128 45.7617 64.7349 45.7414 64.5583 45.7008V45.1888C64.6776 45.2174 64.8209 45.2318 64.988 45.2318C65.1932 45.2318 65.3675 45.1745 65.5107 45.0599C65.654 44.9477 65.7709 44.7734 65.8617 44.5371L66.0658 44.0143L64.4831 40.0684ZM73.8001 42.5999C73.8001 43.0559 73.6354 43.4151 73.306 43.6777C72.9766 43.9403 72.5182 44.0716 71.931 44.0716C71.3103 44.0716 70.8305 43.9893 70.4915 43.8245V43.1943C70.7135 43.2898 70.9558 43.365 71.2184 43.4199C71.4834 43.4748 71.7305 43.5023 71.9596 43.5023C72.3511 43.5023 72.6459 43.4271 72.8441 43.2767C73.0422 43.1263 73.1413 42.9198 73.1413 42.6572C73.1413 42.483 73.1055 42.3397 73.0339 42.2275C72.9622 42.1153 72.8417 42.0103 72.6722 41.9124C72.5051 41.8146 72.2509 41.7036 71.9095 41.5794C71.4249 41.4028 71.0788 41.1951 70.8711 40.9564C70.6634 40.7153 70.5596 40.4049 70.5596 40.0254C70.5596 39.6172 70.7123 39.2925 71.0179 39.0514C71.3258 38.8103 71.7305 38.6898 72.2318 38.6898C72.7546 38.6898 73.2356 38.7877 73.6748 38.9834L73.4707 39.5492C73.0219 39.363 72.6042 39.2699 72.2174 39.2699C71.9071 39.2699 71.6636 39.3367 71.487 39.4704C71.3127 39.6041 71.2256 39.7914 71.2256 40.0326C71.2256 40.2044 71.259 40.3477 71.3258 40.4622C71.3951 40.5744 71.5049 40.6771 71.6553 40.7702C71.808 40.8633 72.0468 40.9695 72.3714 41.0889C72.7605 41.2321 73.0506 41.3717 73.2415 41.5078C73.4325 41.6415 73.5733 41.7967 73.6641 41.9733C73.7548 42.1476 73.8001 42.3564 73.8001 42.5999ZM76.0811 43.5452C76.1646 43.5452 76.2625 43.5369 76.3747 43.5202C76.4869 43.5035 76.5716 43.4844 76.6289 43.4629V43.957C76.5692 43.9833 76.4761 44.0084 76.3496 44.0322C76.2255 44.0585 76.099 44.0716 75.9701 44.0716C75.2014 44.0716 74.8171 43.667 74.8171 42.8577V40.5697H74.262V40.2617L74.8242 40.0039L75.082 39.166H75.4652V40.0684H76.6003V40.5697H75.4652V42.8398C75.4652 43.0666 75.5189 43.2409 75.6263 43.3626C75.7361 43.4844 75.8877 43.5452 76.0811 43.5452ZM80.8327 42.027C80.8327 42.6692 80.6704 43.1705 80.3457 43.5309C80.021 43.8914 79.5723 44.0716 78.9993 44.0716C78.6437 44.0716 78.3286 43.9893 78.054 43.8245C77.7795 43.6574 77.5683 43.4187 77.4202 43.1084C77.2722 42.7981 77.1982 42.4376 77.1982 42.027C77.1982 41.3873 77.3582 40.8895 77.6781 40.5339C77.9979 40.1758 78.4467 39.9967 79.0244 39.9967C79.5782 39.9967 80.0175 40.1794 80.3421 40.5446C80.6692 40.9074 80.8327 41.4016 80.8327 42.027ZM77.8643 42.027C77.8643 42.5212 77.9609 42.8971 78.1543 43.1549C78.35 43.4104 78.6377 43.5381 79.0173 43.5381C79.392 43.5381 79.6773 43.4104 79.873 43.1549C80.0688 42.8971 80.1667 42.5212 80.1667 42.027C80.1667 41.5329 80.0676 41.1617 79.8695 40.9134C79.6737 40.6628 79.3861 40.5374 79.0065 40.5374C78.245 40.5374 77.8643 41.034 77.8643 42.027ZM83.6901 39.9967C83.8644 39.9967 84.0183 40.0111 84.152 40.0397L84.0732 40.6341C83.9276 40.6007 83.7856 40.584 83.6471 40.584C83.4395 40.584 83.2461 40.6413 83.0671 40.7559C82.8904 40.8704 82.752 41.0292 82.6517 41.2321C82.5514 41.4326 82.5013 41.6558 82.5013 41.9017V44H81.8568V40.0684H82.3867L82.4583 40.7881H82.487C82.6374 40.5279 82.8152 40.3309 83.0205 40.1973C83.2258 40.0636 83.449 39.9967 83.6901 39.9967ZM84.2702 40.0684H84.9613L85.8099 42.3063C85.9889 42.7933 86.0987 43.1502 86.1393 43.377H86.168C86.1895 43.2886 86.2384 43.1239 86.3148 42.8828C86.3912 42.6393 86.4556 42.4448 86.5081 42.2992L87.3066 40.0684H88.0013L86.3076 44.5443C86.1429 44.9787 85.9472 45.2903 85.7204 45.4788C85.4936 45.6674 85.2131 45.7617 84.8789 45.7617C84.6999 45.7617 84.522 45.7414 84.3454 45.7008V45.1888C84.4647 45.2174 84.608 45.2318 84.7751 45.2318C84.9804 45.2318 85.1546 45.1745 85.2979 45.0599C85.4411 44.9477 85.5581 44.7734 85.6488 44.5371L85.8529 44.0143L84.2702 40.0684ZM91.0234 44L89.2975 39.4095H89.2689C89.3047 39.7914 89.3226 40.2629 89.3226 40.8239V44H88.7139V38.765H89.6878L91.3027 43.0547H91.3314L92.9749 38.765H93.9417V44H93.29V40.7809C93.29 40.4229 93.3067 39.9681 93.3402 39.4167H93.3115L91.5641 44H91.0234ZM97.7051 44L97.5798 43.4414H97.5511C97.3554 43.6873 97.1596 43.8544 96.9639 43.9427C96.7705 44.0286 96.5258 44.0716 96.2298 44.0716C95.8431 44.0716 95.5399 43.9702 95.3203 43.7673C95.1007 43.5643 94.9909 43.2779 94.9909 42.9079C94.9909 42.1106 95.6199 41.6928 96.8779 41.6546L97.5439 41.6296V41.3968C97.5439 41.0984 97.4795 40.8788 97.3506 40.738C97.2217 40.5947 97.0152 40.5231 96.7311 40.5231C96.5234 40.5231 96.3265 40.5541 96.1403 40.6162C95.9565 40.6783 95.7834 40.7475 95.6211 40.8239L95.4242 40.3405C95.6223 40.2355 95.8383 40.1531 96.0723 40.0934C96.3062 40.0337 96.5378 40.0039 96.7669 40.0039C97.242 40.0039 97.5953 40.1089 97.8268 40.319C98.0584 40.5291 98.1742 40.8633 98.1742 41.3216V44H97.7051ZM96.3766 43.5524C96.7371 43.5524 97.02 43.4557 97.2253 43.2624C97.4329 43.0666 97.5368 42.7897 97.5368 42.4316V42.0771L96.9567 42.1022C96.5055 42.1189 96.1761 42.1905 95.9684 42.3171C95.7631 42.4436 95.6605 42.6429 95.6605 42.915C95.6605 43.1203 95.7225 43.2779 95.8467 43.3877C95.9732 43.4975 96.1498 43.5524 96.3766 43.5524ZM101.257 44.0716C100.73 44.0716 100.324 43.8818 100.04 43.5023H99.9967L100.011 43.6491C100.03 43.8353 100.04 44.0012 100.04 44.1468V45.7617H99.3952V40.0684H99.9251L100.011 40.6055H100.04C100.192 40.3906 100.369 40.2355 100.57 40.14C100.77 40.0445 101.002 39.9967 101.264 39.9967C101.775 39.9967 102.171 40.1746 102.453 40.5303C102.737 40.8836 102.879 41.3825 102.879 42.027C102.879 42.6692 102.737 43.1705 102.453 43.5309C102.169 43.8914 101.77 44.0716 101.257 44.0716ZM101.15 40.5374C100.761 40.5374 100.479 40.6472 100.305 40.8669C100.133 41.0865 100.044 41.4314 100.04 41.9017V42.027C100.04 42.5594 100.128 42.9449 100.305 43.1836C100.481 43.4199 100.768 43.5381 101.164 43.5381C101.493 43.5381 101.75 43.4044 101.934 43.137C102.12 42.8697 102.213 42.4973 102.213 42.0199C102.213 41.54 102.12 41.1736 101.934 40.9206C101.75 40.6651 101.489 40.5374 101.15 40.5374ZM105.769 44.0716C105.241 44.0716 104.836 43.8818 104.551 43.5023H104.508L104.523 43.6491C104.542 43.8353 104.551 44.0012 104.551 44.1468V45.7617H103.907V40.0684H104.437L104.523 40.6055H104.551C104.704 40.3906 104.881 40.2355 105.081 40.14C105.282 40.0445 105.513 39.9967 105.776 39.9967C106.287 39.9967 106.683 40.1746 106.965 40.5303C107.249 40.8836 107.391 41.3825 107.391 42.027C107.391 42.6692 107.249 43.1705 106.965 43.5309C106.681 43.8914 106.282 44.0716 105.769 44.0716ZM105.661 40.5374C105.272 40.5374 104.991 40.6472 104.816 40.8669C104.645 41.0865 104.556 41.4314 104.551 41.9017V42.027C104.551 42.5594 104.64 42.9449 104.816 43.1836C104.993 43.4199 105.28 43.5381 105.676 43.5381C106.005 43.5381 106.262 43.4044 106.446 43.137C106.632 42.8697 106.725 42.4973 106.725 42.0199C106.725 41.54 106.632 41.1736 106.446 40.9206C106.262 40.6651 106 40.5374 105.661 40.5374ZM110.091 44.0716C109.501 44.0716 109.038 43.8938 108.701 43.5381C108.367 43.18 108.2 42.6883 108.2 42.0628C108.2 41.4326 108.357 40.9313 108.669 40.5589C108.982 40.1841 109.405 39.9967 109.937 39.9967C110.431 39.9967 110.825 40.1567 111.118 40.4766C111.412 40.7941 111.559 41.2249 111.559 41.7692V42.1595H108.866C108.878 42.6059 108.992 42.9449 109.206 43.1764C109.421 43.408 109.726 43.5238 110.119 43.5238C110.33 43.5238 110.529 43.5059 110.717 43.4701C110.906 43.4319 111.127 43.359 111.38 43.2516V43.8174C111.163 43.9105 110.959 43.9761 110.768 44.0143C110.577 44.0525 110.351 44.0716 110.091 44.0716ZM109.93 40.5231C109.622 40.5231 109.378 40.6222 109.199 40.8203C109.02 41.0184 108.914 41.2942 108.881 41.6475H110.882C110.877 41.2798 110.793 41.0005 110.628 40.8096C110.463 40.6186 110.23 40.5231 109.93 40.5231ZM114.391 39.9967C114.566 39.9967 114.72 40.0111 114.853 40.0397L114.774 40.6341C114.629 40.6007 114.487 40.584 114.348 40.584C114.141 40.584 113.947 40.6413 113.768 40.7559C113.592 40.8704 113.453 41.0292 113.353 41.2321C113.253 41.4326 113.202 41.6558 113.202 41.9017V44H112.558V40.0684H113.088L113.16 40.7881H113.188C113.339 40.5279 113.516 40.3309 113.722 40.1973C113.927 40.0636 114.15 39.9967 114.391 39.9967Z" fill="black"/>
<path d="M13.333 30.667H45.9997C49.6816 30.667 52.6663 33.6518 52.6663 37.3337C52.6663 41.0156 49.6816 44.0003 45.9997 44.0003H13.333V30.667Z" fill="#FFA100"/>
<path d="M13.333 14.666H36.6663C40.3482 14.666 43.333 17.6508 43.333 21.3327C43.333 25.0146 40.3482 27.9993 36.6663 27.9993H13.333V14.666Z" fill="#008582"/>
</g>
<defs>
<clipPath id="clip0_814_478">
<rect width="166" height="33.3333" fill="white" transform="translate(13.333 13.333)"/>
</clipPath>
</defs>
</svg>
