<svg width="167" height="34" viewBox="0 0 167 34" fill="none" xmlns="http://www.w3.org/2000/svg">
<g clip-path="url(#clip0_1592_1581)">
<path d="M55.1208 22.4107C54.1039 22.4107 53.0675 22.2836 52.0115 22.0293C50.975 21.7751 50.007 21.4231 49.1075 20.9733V15.6933C49.4203 15.6347 49.7332 15.6347 50.0461 15.6933C50.1439 16.7493 50.447 17.6978 50.9555 18.5387C51.4639 19.36 52.1288 20.0151 52.9501 20.504C53.791 20.9929 54.7199 21.2373 55.7368 21.2373C57.1448 21.2373 58.2692 20.9049 59.1101 20.24C59.9706 19.5556 60.4008 18.6169 60.4008 17.424C60.4008 16.6809 60.2052 16.0649 59.8141 15.576C59.423 15.0871 58.895 14.6764 58.2301 14.344C57.5848 13.992 56.871 13.6791 56.0888 13.4053C55.3261 13.112 54.5537 12.7991 53.7715 12.4667C53.0088 12.1342 52.295 11.7333 51.6301 11.264C50.9848 10.7751 50.4666 10.1787 50.0755 9.47467C49.6843 8.75111 49.4888 7.85155 49.4888 6.776C49.4888 5.56355 49.7528 4.53689 50.2808 3.696C50.8283 2.83555 51.6106 2.18044 52.6275 1.73066C53.6443 1.28089 54.8568 1.056 56.2648 1.056C57.5163 1.056 58.5723 1.18311 59.4328 1.43733C60.2932 1.69155 61.0461 2.024 61.6915 2.43466V7.04C61.3786 7.09866 61.0657 7.09866 60.7528 7.04C60.6159 5.65155 60.1368 4.50755 59.3155 3.608C58.4941 2.68889 57.399 2.22933 56.0301 2.22933C54.7981 2.22933 53.8106 2.51289 53.0675 3.08C52.3439 3.62755 51.9821 4.39022 51.9821 5.368C51.9821 6.16978 52.1777 6.83466 52.5688 7.36267C52.9795 7.87111 53.5172 8.31111 54.1821 8.68266C54.8666 9.03466 55.5999 9.35733 56.3821 9.65066C57.1839 9.944 57.9759 10.2667 58.7581 10.6187C59.5599 10.9511 60.2932 11.3618 60.9581 11.8507C61.6426 12.32 62.1803 12.9164 62.5715 13.64C62.9821 14.3636 63.1875 15.2729 63.1875 16.368C63.1875 17.5609 62.8452 18.6169 62.1608 19.536C61.4959 20.4356 60.5572 21.1396 59.3448 21.648C58.1519 22.1564 56.7439 22.4107 55.1208 22.4107ZM70.639 22.44C69.6221 22.44 68.8008 22.2053 68.175 21.736C67.5493 21.2471 67.2364 20.4649 67.2364 19.3893V12.9067C67.2364 12.3787 67.2266 11.7822 67.207 11.1173C67.207 10.4329 67.1875 9.74844 67.1484 9.064C67.1288 8.36 67.0799 7.73422 67.0017 7.18667C67.3537 7.06933 67.6666 6.91289 67.9404 6.71733C68.2337 6.50222 68.4879 6.25778 68.703 5.984C68.9377 5.71022 69.1235 5.42666 69.2604 5.13333C69.5733 5.07466 69.8861 5.07466 70.199 5.13333C70.1208 6.44355 70.0719 7.75378 70.0524 9.064C70.0328 10.3547 70.023 11.6551 70.023 12.9653V19.272C70.023 19.9369 70.1208 20.416 70.3164 20.7093C70.5315 20.9831 70.8346 21.12 71.2257 21.12C71.519 21.12 71.8221 21.0516 72.135 20.9147C72.4479 20.7778 72.7119 20.592 72.927 20.3573C73.0835 20.4551 73.2204 20.5724 73.3377 20.7093C73.455 20.8462 73.5724 20.9929 73.6897 21.1493C73.3377 21.5209 72.9368 21.824 72.487 22.0587C72.0568 22.3129 71.4408 22.44 70.639 22.44ZM65.183 10.2667C65.1244 9.87555 65.1244 9.48444 65.183 9.09333H73.3964C73.455 9.48444 73.455 9.87555 73.3964 10.2667H65.183ZM81.8787 9.82666C81.1747 9.82666 80.5587 10.0222 80.0307 10.4133C79.5223 10.8044 79.1214 11.4107 78.8281 12.232C78.5543 13.0338 78.4174 14.0507 78.4174 15.2827C78.4174 16.6516 78.5739 17.7858 78.8867 18.6853C79.1996 19.5653 79.6396 20.2204 80.2067 20.6507C80.7739 21.0613 81.429 21.2667 82.1721 21.2667L82.0254 22.44C80.7347 22.44 79.581 22.1564 78.5641 21.5893C77.5667 21.0222 76.7747 20.2107 76.1881 19.1547C75.621 18.0987 75.3374 16.8569 75.3374 15.4293C75.3374 14.0409 75.6112 12.8382 76.1587 11.8213C76.7259 10.8044 77.5081 10.0222 78.5054 9.47467C79.5027 8.92711 80.6761 8.65333 82.0254 8.65333L81.8787 9.82666ZM82.1721 21.2667C82.8956 21.2667 83.5116 21.0711 84.0201 20.68C84.5285 20.2693 84.9196 19.6631 85.1934 18.8613C85.4867 18.0596 85.6334 17.0427 85.6334 15.8107C85.6334 14.4222 85.477 13.288 85.1641 12.408C84.8512 11.528 84.4112 10.8827 83.8441 10.472C83.2965 10.0418 82.6414 9.82666 81.8787 9.82666L82.0254 8.65333C83.3356 8.65333 84.4894 8.93689 85.4867 9.504C86.4841 10.0711 87.2663 10.8827 87.8334 11.9387C88.4201 12.9751 88.7134 14.2169 88.7134 15.664C88.7134 17.0524 88.4396 18.2551 87.8921 19.272C87.3445 20.2889 86.5623 21.0711 85.5454 21.6187C84.5481 22.1662 83.3747 22.44 82.0254 22.44L82.1721 21.2667ZM91.1158 22.0587C91.0375 21.6871 91.0375 21.3253 91.1158 20.9733H92.7878C92.8855 20.2302 92.954 19.5164 92.9931 18.832C93.0518 18.1476 93.0811 17.4436 93.0811 16.72V14.3733C93.0811 12.9653 92.9833 11.5671 92.7878 10.1787H91.2624C91.1842 9.80711 91.1842 9.44533 91.2624 9.09333C91.9469 9.09333 92.6802 9.07378 93.4624 9.03466C94.2447 8.976 95.0464 8.86844 95.8678 8.712C95.77 9.064 95.6918 9.47466 95.6331 9.944C95.594 10.3938 95.5744 10.8436 95.5744 11.2933L95.8678 12.6133V16.72C95.8678 17.4436 95.8873 18.1476 95.9264 18.832C95.9851 19.5164 96.0633 20.2302 96.1611 20.9733H98.7131C98.7913 21.3253 98.7913 21.6871 98.7131 22.0587C97.6767 22.0196 96.8553 22 96.2491 22C95.6429 22 95.0562 22 94.4891 22C93.922 22 93.3647 22 92.8171 22C92.2891 22 91.722 22.0196 91.1158 22.0587ZM99.5051 12.4667C99.5833 11.7431 99.5442 11.176 99.3878 10.7653C99.2509 10.3351 98.938 10.12 98.4491 10.12C97.9798 10.12 97.5398 10.3351 97.1291 10.7653C96.738 11.1956 96.3175 11.8116 95.8678 12.6133L95.5744 11.2933C96.0438 10.4524 96.5913 9.80711 97.2171 9.35733C97.8624 8.888 98.6349 8.65333 99.5344 8.65333C100.258 8.65333 100.835 8.78044 101.265 9.03466C101.715 9.28889 102.038 9.69955 102.233 10.2667C102.429 10.8142 102.497 11.5476 102.438 12.4667H99.5051ZM109.664 21.8533C108.589 21.8533 107.758 21.6382 107.171 21.208C106.584 20.7582 106.095 20.2009 105.704 19.536C105.743 19.2427 105.763 18.9493 105.763 18.656C105.783 18.3627 105.792 18.0693 105.792 17.776V14.3733C105.792 12.9653 105.695 11.5671 105.499 10.1787H103.974C103.895 9.80711 103.895 9.44533 103.974 9.09333C104.736 9.09333 105.538 9.07378 106.379 9.03466C107.239 8.976 108.119 8.86844 109.019 8.712C108.902 9.20089 108.814 9.79733 108.755 10.5013C108.696 11.1858 108.647 11.88 108.608 12.584C108.589 13.288 108.579 13.8844 108.579 14.3733V17.776C108.579 18.4996 108.735 19.1156 109.048 19.624C109.381 20.1324 109.958 20.3867 110.779 20.3867C111.463 20.3867 112.07 20.2107 112.598 19.8587C113.145 19.4871 113.615 18.9298 114.006 18.1867V19.8293C113.693 20.2791 113.331 20.6604 112.92 20.9733C112.529 21.2667 112.07 21.4916 111.542 21.648C111.014 21.7849 110.388 21.8533 109.664 21.8533ZM112.04 9.09333C112.803 9.09333 113.634 9.07378 114.534 9.03466C115.433 8.976 116.333 8.86844 117.232 8.712C117.115 9.20089 117.027 9.79733 116.968 10.5013C116.91 11.1858 116.861 11.88 116.822 12.584C116.802 13.288 116.792 13.8844 116.792 14.3733V19.9467C116.792 21.8044 116.45 23.3787 115.766 24.6693C115.101 25.96 114.211 26.9378 113.096 27.6027C112.001 28.2676 110.799 28.6 109.488 28.6C108.002 28.6 106.79 28.2969 105.851 27.6907C104.932 27.104 104.472 26.2436 104.472 25.1093C104.472 24.112 104.805 23.2809 105.47 22.616C106.154 21.9707 106.946 21.4329 107.846 21.0027L108.667 21.5013C107.943 21.9707 107.455 22.4693 107.2 22.9973C106.946 23.5449 106.819 24.1511 106.819 24.816C106.819 25.6373 107.024 26.2729 107.435 26.7227C107.846 27.192 108.53 27.4267 109.488 27.4267C110.623 27.4267 111.512 27.1236 112.158 26.5173C112.823 25.9307 113.292 25.168 113.566 24.2293C113.859 23.2907 114.006 22.3129 114.006 21.296V14.3733C114.006 12.9653 113.908 11.5671 113.712 10.1787H112.04C111.962 9.80711 111.962 9.44533 112.04 9.09333ZM131.077 11.1467C131.82 11.2249 132.553 11.3618 133.277 11.5573C134.02 11.7529 134.704 12.0462 135.33 12.4373C135.956 12.8089 136.454 13.2978 136.826 13.904C137.198 14.5102 137.383 15.2533 137.383 16.1333C137.383 17.3849 137.022 18.4507 136.298 19.3307C135.594 20.1911 134.636 20.856 133.423 21.3253C132.211 21.7751 130.842 22 129.317 22H124.33C123.665 22 123 22 122.335 22C121.67 22 120.996 22.0196 120.311 22.0587C120.233 21.6871 120.233 21.3253 120.311 20.9733H122.423C122.521 20.0933 122.59 19.2427 122.629 18.4213C122.687 17.5804 122.717 16.72 122.717 15.84V7.62667C122.717 6.74666 122.687 5.896 122.629 5.07466C122.59 4.23378 122.521 3.37333 122.423 2.49333H120.311C120.233 2.12178 120.233 1.76 120.311 1.408C120.996 1.42755 121.67 1.44711 122.335 1.46666C123 1.46666 123.665 1.46666 124.33 1.46666H128.73C130.06 1.46666 131.272 1.64266 132.367 1.99466C133.482 2.32711 134.372 2.84533 135.037 3.54933C135.721 4.25333 136.063 5.17244 136.063 6.30666C136.063 7.304 135.809 8.14489 135.301 8.82933C134.792 9.51378 134.157 10.0516 133.394 10.4427C132.631 10.8142 131.859 11.0489 131.077 11.1467ZM126.237 20.8267H129.61C130.94 20.8267 131.957 20.3964 132.661 19.536C133.365 18.656 133.717 17.5902 133.717 16.3387C133.717 15.4978 133.56 14.7449 133.247 14.08C132.934 13.4151 132.436 12.8871 131.751 12.496C131.067 12.0853 130.158 11.88 129.023 11.88H124.33V10.7067H129.023C130.06 10.7067 130.901 10.3351 131.546 9.592C132.211 8.82933 132.543 7.85155 132.543 6.65867C132.543 5.48533 132.201 4.52711 131.517 3.784C130.852 3.02133 129.825 2.64 128.437 2.64H126.237C126.139 3.52 126.061 4.33155 126.002 5.07466C125.963 5.79822 125.943 6.6 125.943 7.48V15.84C125.943 16.72 125.963 17.5511 126.002 18.3333C126.061 19.1156 126.139 19.9467 126.237 20.8267ZM146.618 9.82666C145.914 9.82666 145.298 10.0222 144.77 10.4133C144.262 10.8044 143.861 11.4107 143.568 12.232C143.294 13.0338 143.157 14.0507 143.157 15.2827C143.157 16.6516 143.313 17.7858 143.626 18.6853C143.939 19.5653 144.379 20.2204 144.946 20.6507C145.513 21.0613 146.169 21.2667 146.912 21.2667L146.765 22.44C145.474 22.44 144.321 22.1564 143.304 21.5893C142.306 21.0222 141.514 20.2107 140.928 19.1547C140.361 18.0987 140.077 16.8569 140.077 15.4293C140.077 14.0409 140.351 12.8382 140.898 11.8213C141.465 10.8044 142.248 10.0222 143.245 9.47467C144.242 8.92711 145.416 8.65333 146.765 8.65333L146.618 9.82666ZM146.912 21.2667C147.635 21.2667 148.251 21.0711 148.76 20.68C149.268 20.2693 149.659 19.6631 149.933 18.8613C150.226 18.0596 150.373 17.0427 150.373 15.8107C150.373 14.4222 150.217 13.288 149.904 12.408C149.591 11.528 149.151 10.8827 148.584 10.472C148.036 10.0418 147.381 9.82666 146.618 9.82666L146.765 8.65333C148.075 8.65333 149.229 8.93689 150.226 9.504C151.224 10.0711 152.006 10.8827 152.573 11.9387C153.16 12.9751 153.453 14.2169 153.453 15.664C153.453 17.0524 153.179 18.2551 152.632 19.272C152.084 20.2889 151.302 21.0711 150.285 21.6187C149.288 22.1662 148.114 22.44 146.765 22.44L146.912 21.2667ZM160.959 22.44C159.942 22.44 159.121 22.2053 158.495 21.736C157.87 21.2471 157.557 20.4649 157.557 19.3893V12.9067C157.557 12.3787 157.547 11.7822 157.527 11.1173C157.527 10.4329 157.508 9.74844 157.469 9.064C157.449 8.36 157.4 7.73422 157.322 7.18667C157.674 7.06933 157.987 6.91289 158.261 6.71733C158.554 6.50222 158.808 6.25778 159.023 5.984C159.258 5.71022 159.444 5.42666 159.581 5.13333C159.894 5.07466 160.206 5.07466 160.519 5.13333C160.441 6.44355 160.392 7.75378 160.373 9.064C160.353 10.3547 160.343 11.6551 160.343 12.9653V19.272C160.343 19.9369 160.441 20.416 160.637 20.7093C160.852 20.9831 161.155 21.12 161.546 21.12C161.839 21.12 162.142 21.0516 162.455 20.9147C162.768 20.7778 163.032 20.592 163.247 20.3573C163.404 20.4551 163.541 20.5724 163.658 20.7093C163.775 20.8462 163.893 20.9929 164.01 21.1493C163.658 21.5209 163.257 21.824 162.807 22.0587C162.377 22.3129 161.761 22.44 160.959 22.44ZM155.503 10.2667C155.445 9.87555 155.445 9.48444 155.503 9.09333H163.717C163.775 9.48444 163.775 9.87555 163.717 10.2667H155.503Z" fill="black"/>
<path d="M46.7703 30V24.6667H47.3849V26.6354H47.437C47.4821 26.566 47.5446 26.4774 47.6245 26.3698C47.7061 26.2604 47.8224 26.1632 47.9735 26.0781C48.1262 25.9913 48.3328 25.9479 48.5933 25.9479C48.9301 25.9479 49.2269 26.0321 49.4839 26.2005C49.7408 26.3689 49.9414 26.6076 50.0854 26.9167C50.2295 27.2257 50.3016 27.5903 50.3016 28.0104C50.3016 28.434 50.2295 28.8012 50.0854 29.112C49.9414 29.421 49.7417 29.6606 49.4865 29.8307C49.2313 29.9991 48.937 30.0833 48.6037 30.0833C48.3467 30.0833 48.141 30.0408 47.9865 29.9557C47.832 29.8689 47.7131 29.7708 47.6297 29.6615C47.5464 29.5503 47.4821 29.4583 47.437 29.3854H47.3641V30H46.7703ZM47.3745 28C47.3745 28.3021 47.4188 28.5686 47.5073 28.7995C47.5959 29.0286 47.7252 29.2083 47.8953 29.3385C48.0655 29.467 48.2738 29.5312 48.5203 29.5312C48.7773 29.5312 48.9917 29.4635 49.1636 29.3281C49.3372 29.191 49.4674 29.0069 49.5542 28.776C49.6427 28.5434 49.687 28.2847 49.687 28C49.687 27.7187 49.6436 27.4653 49.5568 27.2396C49.4717 27.0122 49.3424 26.8325 49.1688 26.7005C48.9969 26.5668 48.7808 26.5 48.5203 26.5C48.2703 26.5 48.0603 26.5634 47.8901 26.6901C47.72 26.8151 47.5915 26.9905 47.5047 27.2161C47.4179 27.4401 47.3745 27.7014 47.3745 28ZM51.4943 31.5C51.3901 31.5 51.2973 31.4913 51.2157 31.474C51.1341 31.4583 51.0776 31.4427 51.0464 31.4271L51.2026 30.8854C51.3519 30.9236 51.4839 30.9375 51.5985 30.9271C51.7131 30.9167 51.8146 30.8655 51.9032 30.7734C51.9934 30.6832 52.0759 30.5365 52.1506 30.3333L52.2651 30.0208L50.786 26H51.4526L52.5568 29.1875H52.5985L53.7026 26H54.3693L52.6714 30.5833C52.595 30.7899 52.5004 30.9609 52.3875 31.0964C52.2747 31.2335 52.1436 31.3351 51.9943 31.401C51.8467 31.467 51.6801 31.5 51.4943 31.5ZM60.243 26C60.2118 25.7361 60.085 25.5312 59.8628 25.3854C59.6406 25.2396 59.368 25.1667 59.0451 25.1667C58.809 25.1667 58.6024 25.2049 58.4253 25.2812C58.2499 25.3576 58.1128 25.4627 58.0138 25.5964C57.9166 25.73 57.868 25.8819 57.868 26.0521C57.868 26.1944 57.9019 26.3168 57.9696 26.4193C58.039 26.52 58.1275 26.6042 58.2352 26.6719C58.3428 26.7378 58.4557 26.7925 58.5737 26.8359C58.6918 26.8776 58.8003 26.9115 58.8993 26.9375L59.4409 27.0833C59.5798 27.1198 59.7343 27.1701 59.9045 27.2344C60.0763 27.2986 60.2404 27.3863 60.3966 27.4974C60.5546 27.6068 60.6848 27.7474 60.7873 27.9193C60.8897 28.0911 60.9409 28.3021 60.9409 28.5521C60.9409 28.8403 60.8654 29.1007 60.7144 29.3333C60.565 29.566 60.3463 29.7509 60.0581 29.888C59.7716 30.0252 59.4236 30.0938 59.0138 30.0938C58.6319 30.0938 58.3012 30.0321 58.0216 29.9089C57.7439 29.7856 57.5251 29.6137 57.3654 29.3932C57.2074 29.1727 57.118 28.9167 57.0972 28.625H57.7638C57.7812 28.8264 57.8489 28.9931 57.967 29.125C58.0868 29.2552 58.2378 29.3524 58.4201 29.4167C58.6041 29.4792 58.802 29.5104 59.0138 29.5104C59.2604 29.5104 59.4817 29.4705 59.6779 29.3906C59.8741 29.309 60.0295 29.1962 60.144 29.0521C60.2586 28.9062 60.3159 28.7361 60.3159 28.5417C60.3159 28.3646 60.2664 28.2205 60.1675 28.1094C60.0685 27.9983 59.9383 27.908 59.7769 27.8385C59.6154 27.7691 59.4409 27.7083 59.2534 27.6562L58.5972 27.4687C58.1805 27.349 57.8506 27.178 57.6076 26.9557C57.3645 26.7335 57.243 26.4427 57.243 26.0833C57.243 25.7847 57.3237 25.5243 57.4852 25.3021C57.6484 25.0781 57.8671 24.9045 58.1414 24.7812C58.4175 24.6562 58.7256 24.5937 59.0659 24.5937C59.4097 24.5937 59.7152 24.6554 59.9826 24.7786C60.2499 24.9002 60.4618 25.0668 60.618 25.2786C60.776 25.4905 60.8593 25.7309 60.868 26H60.243ZM63.659 26V26.5208H61.5861V26H63.659ZM62.1903 25.0417H62.8048V28.8542C62.8048 29.0278 62.83 29.158 62.8804 29.2448C62.9325 29.3299 62.9984 29.3872 63.0783 29.4167C63.1599 29.4444 63.2458 29.4583 63.3361 29.4583C63.4038 29.4583 63.4594 29.4549 63.5028 29.4479C63.5462 29.4392 63.5809 29.4323 63.6069 29.4271L63.7319 29.9792C63.6903 29.9948 63.6321 30.0104 63.5575 30.026C63.4828 30.0434 63.3882 30.0521 63.2736 30.0521C63.1 30.0521 62.9298 30.0148 62.7632 29.9401C62.5983 29.8655 62.4611 29.7517 62.3517 29.599C62.2441 29.4462 62.1903 29.2535 62.1903 29.0208V25.0417ZM66.1655 30.0833C65.8044 30.0833 65.4876 29.9974 65.215 29.8255C64.9442 29.6536 64.7324 29.4132 64.5796 29.1042C64.4285 28.7951 64.353 28.434 64.353 28.0208C64.353 27.6042 64.4285 27.2405 64.5796 26.9297C64.7324 26.6189 64.9442 26.3776 65.215 26.2057C65.4876 26.0339 65.8044 25.9479 66.1655 25.9479C66.5266 25.9479 66.8426 26.0339 67.1134 26.2057C67.386 26.3776 67.5978 26.6189 67.7489 26.9297C67.9016 27.2405 67.978 27.6042 67.978 28.0208C67.978 28.434 67.9016 28.7951 67.7489 29.1042C67.5978 29.4132 67.386 29.6536 67.1134 29.8255C66.8426 29.9974 66.5266 30.0833 66.1655 30.0833ZM66.1655 29.5312C66.4398 29.5312 66.6655 29.4609 66.8426 29.3203C67.0197 29.1797 67.1508 28.9948 67.2358 28.7656C67.3209 28.5365 67.3634 28.2882 67.3634 28.0208C67.3634 27.7535 67.3209 27.5043 67.2358 27.2734C67.1508 27.0425 67.0197 26.8559 66.8426 26.7135C66.6655 26.5712 66.4398 26.5 66.1655 26.5C65.8912 26.5 65.6655 26.5712 65.4884 26.7135C65.3114 26.8559 65.1803 27.0425 65.0952 27.2734C65.0101 27.5043 64.9676 27.7535 64.9676 28.0208C64.9676 28.2882 65.0101 28.5365 65.0952 28.7656C65.1803 28.9948 65.3114 29.1797 65.4884 29.3203C65.6655 29.4609 65.8912 29.5312 66.1655 29.5312ZM68.9162 30V26H69.5099V26.6042H69.5516C69.6245 26.4062 69.7565 26.2457 69.9474 26.1224C70.1384 25.9991 70.3537 25.9375 70.5933 25.9375C70.6384 25.9375 70.6948 25.9384 70.7625 25.9401C70.8302 25.9418 70.8815 25.9444 70.9162 25.9479V26.5729C70.8953 26.5677 70.8476 26.5599 70.7729 26.5495C70.7 26.5373 70.6228 26.5312 70.5412 26.5312C70.3467 26.5312 70.1731 26.572 70.0203 26.6536C69.8693 26.7335 69.7495 26.8446 69.661 26.987C69.5742 27.1276 69.5308 27.2882 69.5308 27.4687V30H68.9162ZM72.1623 31.5C72.0581 31.5 71.9652 31.4913 71.8836 31.474C71.802 31.4583 71.7456 31.4427 71.7144 31.4271L71.8706 30.8854C72.0199 30.9236 72.1519 30.9375 72.2664 30.9271C72.381 30.9167 72.4826 30.8655 72.5711 30.7734C72.6614 30.6832 72.7439 30.5365 72.8185 30.3333L72.9331 30.0208L71.4539 26H72.1206L73.2248 29.1875H73.2664L74.3706 26H75.0373L73.3394 30.5833C73.263 30.7899 73.1683 30.9609 73.0555 31.0964C72.9427 31.2335 72.8116 31.3351 72.6623 31.401C72.5147 31.467 72.348 31.5 72.1623 31.5ZM75.9318 24.6667H76.7026L78.5151 29.0937H78.5776L80.3901 24.6667H81.161V30H80.5568V25.9479H80.5047L78.8381 30H78.2547L76.5881 25.9479H76.536V30H75.9318V24.6667ZM83.5496 30.0938C83.2962 30.0938 83.0661 30.046 82.8595 29.9505C82.6529 29.8533 82.4889 29.7135 82.3674 29.5312C82.2458 29.3472 82.1851 29.125 82.1851 28.8646C82.1851 28.6354 82.2302 28.4497 82.3205 28.3073C82.4108 28.1632 82.5314 28.0503 82.6825 27.9687C82.8335 27.8872 83.0002 27.8264 83.1825 27.7865C83.3665 27.7448 83.5514 27.7118 83.7371 27.6875C83.9802 27.6562 84.1772 27.6328 84.3283 27.6172C84.4811 27.5998 84.5922 27.5712 84.6616 27.5312C84.7328 27.4913 84.7684 27.4219 84.7684 27.3229V27.3021C84.7684 27.0451 84.6981 26.8455 84.5575 26.7031C84.4186 26.5608 84.2076 26.4896 83.9246 26.4896C83.6312 26.4896 83.4012 26.5538 83.2345 26.6823C83.0679 26.8108 82.9507 26.9479 82.883 27.0937L82.2996 26.8854C82.4038 26.6424 82.5427 26.4531 82.7163 26.3177C82.8917 26.1806 83.0826 26.0851 83.2892 26.0312C83.4976 25.9757 83.7024 25.9479 83.9038 25.9479C84.0323 25.9479 84.1799 25.9635 84.3465 25.9948C84.5149 26.0243 84.6772 26.0859 84.8335 26.1797C84.9915 26.2734 85.1226 26.4149 85.2267 26.6042C85.3309 26.7934 85.383 27.0469 85.383 27.3646V30H84.7684V29.4583H84.7371C84.6955 29.5451 84.626 29.638 84.5288 29.737C84.4316 29.8359 84.3022 29.9201 84.1408 29.9896C83.9793 30.059 83.7823 30.0938 83.5496 30.0938ZM83.6434 29.5417C83.8864 29.5417 84.0913 29.4939 84.258 29.3984C84.4264 29.303 84.5531 29.1797 84.6382 29.0286C84.725 28.8776 84.7684 28.7187 84.7684 28.5521V27.9896C84.7424 28.0208 84.6851 28.0495 84.5965 28.0755C84.5097 28.0998 84.409 28.1215 84.2944 28.1406C84.1816 28.158 84.0713 28.1736 83.9637 28.1875C83.8578 28.1997 83.7719 28.2101 83.7059 28.2187C83.5462 28.2396 83.3969 28.2734 83.258 28.3203C83.1208 28.3655 83.0097 28.434 82.9246 28.526C82.8413 28.6163 82.7996 28.7396 82.7996 28.8958C82.7996 29.1094 82.8786 29.2708 83.0366 29.3802C83.1963 29.4878 83.3986 29.5417 83.6434 29.5417ZM86.5047 31.5V26H87.0985V26.6354H87.1714C87.2165 26.566 87.279 26.4774 87.3589 26.3698C87.4405 26.2604 87.5568 26.1632 87.7078 26.0781C87.8606 25.9913 88.0672 25.9479 88.3276 25.9479C88.6644 25.9479 88.9613 26.0321 89.2183 26.2005C89.4752 26.3689 89.6757 26.6076 89.8198 26.9167C89.9639 27.2257 90.036 27.5903 90.036 28.0104C90.036 28.434 89.9639 28.8012 89.8198 29.112C89.6757 29.421 89.4761 29.6606 89.2209 29.8307C88.9657 29.9991 88.6714 30.0833 88.3381 30.0833C88.0811 30.0833 87.8754 30.0408 87.7209 29.9557C87.5664 29.8689 87.4474 29.7708 87.3641 29.6615C87.2808 29.5503 87.2165 29.4583 87.1714 29.3854H87.1193V31.5H86.5047ZM87.1089 28C87.1089 28.3021 87.1532 28.5686 87.2417 28.7995C87.3302 29.0286 87.4596 29.2083 87.6297 29.3385C87.7999 29.467 88.0082 29.5312 88.2547 29.5312C88.5117 29.5312 88.7261 29.4635 88.898 29.3281C89.0716 29.191 89.2018 29.0069 89.2886 28.776C89.3771 28.5434 89.4214 28.2847 89.4214 28C89.4214 27.7187 89.378 27.4653 89.2912 27.2396C89.2061 27.0122 89.0768 26.8325 88.9032 26.7005C88.7313 26.5668 88.5151 26.5 88.2547 26.5C88.0047 26.5 87.7947 26.5634 87.6245 26.6901C87.4544 26.8151 87.3259 26.9905 87.2391 27.2161C87.1523 27.4401 87.1089 27.7014 87.1089 28ZM90.9735 31.5V26H91.5672V26.6354H91.6401C91.6853 26.566 91.7478 26.4774 91.8276 26.3698C91.9092 26.2604 92.0256 26.1632 92.1766 26.0781C92.3294 25.9913 92.536 25.9479 92.7964 25.9479C93.1332 25.9479 93.4301 26.0321 93.687 26.2005C93.944 26.3689 94.1445 26.6076 94.2886 26.9167C94.4327 27.2257 94.5047 27.5903 94.5047 28.0104C94.5047 28.434 94.4327 28.8012 94.2886 29.112C94.1445 29.421 93.9448 29.6606 93.6896 29.8307C93.4344 29.9991 93.1401 30.0833 92.8068 30.0833C92.5499 30.0833 92.3441 30.0408 92.1896 29.9557C92.0351 29.8689 91.9162 29.7708 91.8328 29.6615C91.7495 29.5503 91.6853 29.4583 91.6401 29.3854H91.5881V31.5H90.9735ZM91.5776 28C91.5776 28.3021 91.6219 28.5686 91.7105 28.7995C91.799 29.0286 91.9283 29.2083 92.0985 29.3385C92.2686 29.467 92.4769 29.5312 92.7235 29.5312C92.9804 29.5312 93.1948 29.4635 93.3667 29.3281C93.5403 29.191 93.6705 29.0069 93.7573 28.776C93.8459 28.5434 93.8901 28.2847 93.8901 28C93.8901 27.7187 93.8467 27.4653 93.7599 27.2396C93.6749 27.0122 93.5455 26.8325 93.3719 26.7005C93.2 26.5668 92.9839 26.5 92.7235 26.5C92.4735 26.5 92.2634 26.5634 92.0933 26.6901C91.9231 26.8151 91.7947 26.9905 91.7078 27.2161C91.621 27.4401 91.5776 27.7014 91.5776 28ZM97.1193 30.0833C96.7339 30.0833 96.4014 29.9983 96.1219 29.8281C95.8441 29.6562 95.6297 29.4167 95.4787 29.1094C95.3294 28.8003 95.2547 28.441 95.2547 28.0312C95.2547 27.6215 95.3294 27.2604 95.4787 26.9479C95.6297 26.6337 95.8398 26.3889 96.1089 26.2135C96.3797 26.0365 96.6957 25.9479 97.0568 25.9479C97.2651 25.9479 97.4709 25.9826 97.674 26.0521C97.8771 26.1215 98.062 26.2344 98.2287 26.3906C98.3953 26.5451 98.5282 26.75 98.6271 27.0052C98.7261 27.2604 98.7756 27.5747 98.7756 27.9479V28.2083H95.6922V27.6771H98.1506C98.1506 27.4514 98.1054 27.25 98.0151 27.0729C97.9266 26.8958 97.7999 26.7561 97.6349 26.6536C97.4717 26.5512 97.279 26.5 97.0568 26.5C96.812 26.5 96.6002 26.5608 96.4214 26.6823C96.2443 26.8021 96.108 26.9583 96.0125 27.151C95.917 27.3437 95.8693 27.5503 95.8693 27.7708V28.125C95.8693 28.4271 95.9214 28.6832 96.0256 28.8932C96.1315 29.1016 96.2782 29.2604 96.4657 29.3698C96.6532 29.4774 96.871 29.5312 97.1193 29.5312C97.2808 29.5312 97.4266 29.5087 97.5568 29.4635C97.6888 29.4167 97.8025 29.3472 97.898 29.2552C97.9934 29.1615 98.0672 29.0451 98.1193 28.9062L98.7131 29.0729C98.6506 29.2743 98.5455 29.4514 98.398 29.6042C98.2504 29.7552 98.0681 29.8733 97.8511 29.9583C97.6341 30.0417 97.3901 30.0833 97.1193 30.0833ZM99.7104 30V26H100.304V26.6042H100.346C100.419 26.4062 100.551 26.2457 100.742 26.1224C100.933 25.9991 101.148 25.9375 101.388 25.9375C101.433 25.9375 101.489 25.9384 101.557 25.9401C101.625 25.9418 101.676 25.9444 101.71 25.9479V26.5729C101.69 26.5677 101.642 26.5599 101.567 26.5495C101.494 26.5373 101.417 26.5312 101.335 26.5312C101.141 26.5312 100.967 26.572 100.815 26.6536C100.664 26.7335 100.544 26.8446 100.455 26.987C100.368 27.1276 100.325 27.2882 100.325 27.4687V30H99.7104Z" fill="black"/>
<path d="M0.333496 17.667H33.0002C36.6821 17.667 39.6668 20.6518 39.6668 24.3337C39.6668 28.0156 36.6821 31.0003 33.0002 31.0003H0.333496V17.667Z" fill="#FFA100"/>
<path d="M0.333496 1.66602H23.6668C27.3487 1.66602 30.3335 4.65078 30.3335 8.33268C30.3335 12.0146 27.3487 14.9993 23.6668 14.9993H0.333496V1.66602Z" fill="#008582"/>
</g>
<defs>
<clipPath id="clip0_1592_1581">
<rect width="166" height="33.3333" fill="white" transform="translate(0.333496 0.333008)"/>
</clipPath>
</defs>
</svg>
